<?xml version="1.0" standalone="no"?>
<!DOCTYPE svg PUBLIC "-//W3C//DTD SVG 1.1//EN" "http://www.w3.org/Graphics/SVG/1.1/DTD/svg11.dtd">
<svg t="1640330551535" class="icon" viewBox="0 0 1206 1024" version="1.1" xmlns="http://www.w3.org/2000/svg" p-id="3269" xmlns:xlink="http://www.w3.org/1999/xlink" width="37.69" height="32">
    <defs>
        <style type="text/css"></style>
    </defs>
    <path d="M1061.100213 238.074536v292.398078a140.02213 140.02213 0 0 0 144.700499-146.199039 143.384708 143.384708 0 0 0-144.700499-146.199039zM0.024137 384.273575a147.441731 147.441731 0 0 0 144.700499 146.199039v-292.398078A143.567456 143.567456 0 0 0 0.024137 384.273575zM964.645397 0.501097H241.252552c-36.184262 0-48.245683 12.17107-48.245683 54.82464v578.692347c0 42.65357 12.061421 54.82464 48.245683 54.824639h217.032473v73.09952l-6.03071 6.10381h-60.270554c-30.153552 0-42.214973 12.17107-42.214972 48.720829v158.406659A40.387485 40.387485 0 0 0 391.910662 1023.894371h446.126367a40.204736 40.204736 0 0 0 42.178423-48.72083v-158.406659A40.204736 40.204736 0 0 0 838.037029 768.046053h-66.337814v-79.20333c6.03071 0 6.03071-6.06726 12.061421-6.06726h192.946182c48.209133 0 60.270554-12.20762 60.270554-67.032259v-566.521277A66.118515 66.118515 0 0 0 964.645397 0.501097zM415.996953 414.719525a80.226723 80.226723 0 0 1-78.362685-79.16678A75.438704 75.438704 0 1 1 488.365478 329.448935a76.754496 76.754496 0 0 1-72.368525 85.27059z m373.794394 0a80.226723 80.226723 0 0 1-78.362685-79.16678 71.49133 71.49133 0 0 1 78.362685-73.099519 80.409472 80.409472 0 0 1 78.399234 79.166779 79.312979 79.312979 0 0 1-78.399234 73.09952z" fill="#d81e06" p-id="3270"></path>
</svg>